<svg xmlns="http://www.w3.org/2000/svg" xmlns:xlink="http://www.w3.org/1999/xlink" width="37.827" height="32.919" viewBox="0 0 37.827 32.919">
  <defs>
    <clipPath id="clip-path">
      <rect id="Rectangle_35" data-name="Rectangle 35" width="37.827" height="32.919" fill="#c09628"/>
    </clipPath>
  </defs>
  <g id="Groupe_66" data-name="Groupe 66" transform="translate(0 0)">
    <g id="Groupe_65" data-name="Groupe 65" transform="translate(0 0)" clip-path="url(#clip-path)">
      <path id="Tracé_34" data-name="Tracé 34" d="M37.819,19.543c-.008-.025-.017-.049-.027-.074a.532.532,0,0,1-.031-.1,6.543,6.543,0,0,0-4.805-5.411c-.121-.032-.244-.061-.364-.089l-.012,0A13.7,13.7,0,0,0,19.617.016,13.255,13.255,0,0,0,10.272,3.1,13.53,13.53,0,0,0,5.256,13.87l-.235.058A6.5,6.5,0,0,0,.146,21.577,6.368,6.368,0,0,0,5.13,26.67a1.529,1.529,0,0,1,.263.108c.055.027.111.053.167.077s.117.054.175.084a1.233,1.233,0,0,0,.509.17c.738.027,1.519.029,2.388.008a2.812,2.812,0,0,0,2.849-2.921q.006-2.857,0-5.714V16.365a2.893,2.893,0,0,0-1.055-2.286.376.376,0,0,1-.109-.229,8.6,8.6,0,0,1,5.338-8.177l.123-.047a1.842,1.842,0,0,0,.375-.174.859.859,0,0,0,.389-.984.847.847,0,0,0-.819-.678,1.488,1.488,0,0,0-.639.151A10.327,10.327,0,0,0,8.8,11.173a13.076,13.076,0,0,0-.28,1.641c-.025.2-.051.4-.079.6H7.074c.285-4.7,2.393-8.119,6.268-10.159A11.319,11.319,0,0,1,26.274,4.425a11.4,11.4,0,0,1,4.464,9h-1.4c0-.02,0-.041,0-.06a10.479,10.479,0,0,0-6.756-9.481.914.914,0,1,0-.664,1.694l.205.081a8.678,8.678,0,0,1,5.388,8.182.373.373,0,0,1-.1.233,2.948,2.948,0,0,0-1.069,2.354q0,2.308,0,4.616v3.139a3.133,3.133,0,0,0,.037.541,2.821,2.821,0,0,0,2.907,2.4c.367,0,.734,0,1.1,0h.335a1.869,1.869,0,0,1-2.083,2.232c-1.628-.04-3.283-.028-4.885-.017q-.762.005-1.523.009h-.006c-.175,0-.225-.032-.3-.184A2.544,2.544,0,0,0,19.673,27.6a12.141,12.141,0,0,0-1.559.005,2.652,2.652,0,0,0-.037,5.285c.265.021.544.032.844.032.215,0,.439-.005.676-.016a2.559,2.559,0,0,0,2.352-1.6c.058-.126.1-.141.215-.139.405.009.811.007,1.215,0h.29c.554,0,1.108,0,1.661,0,1.291,0,2.627.006,3.94-.037a3.4,3.4,0,0,0,3.214-2.885A9.054,9.054,0,0,0,32.57,27.1c0-.132.008-.265.014-.4.037-.011.079-.021.141-.037a6.5,6.5,0,0,0,4.921-4.85c.05-.179.088-.361.127-.542l.052-.24,0-1.429ZM36,20.225a4.752,4.752,0,0,1-3.427,4.585V15.763A4.737,4.737,0,0,1,36,20.225M5.253,15.762v9.047a4.7,4.7,0,0,1,0-9.047M7.1,25.292v-9.96c.153,0,.306-.006.458-.009A10.618,10.618,0,0,1,9,15.351a.892.892,0,0,1,.654.91c.008,3.087.008,5.643,0,8.043a.966.966,0,0,1-.956.982c-.4.015-.792.013-1.209.008l-.386,0m21.064-6.462q0-1.206,0-2.413A1.031,1.031,0,0,1,29.3,15.267c.2,0,.4,0,.594,0h.814V25.275l-.421.007a13.035,13.035,0,0,1-1.324-.019.972.972,0,0,1-.8-1.058q0-1.619,0-3.237V18.829Z" transform="translate(0 0)" fill="#c09628"/>
    </g>
  </g>
</svg>
