<svg xmlns="http://www.w3.org/2000/svg" xmlns:xlink="http://www.w3.org/1999/xlink" width="16.882" height="34" viewBox="0 0 16.882 34">
  <defs>
    <clipPath id="clip-path">
      <rect id="Rectangle_24" data-name="Rectangle 24" width="16.882" height="34" fill="#fff"/>
    </clipPath>
  </defs>
  <g id="Groupe_49" data-name="Groupe 49" transform="translate(0)">
    <g id="Groupe_44" data-name="Groupe 44" transform="translate(0 0)" clip-path="url(#clip-path)">
      <path id="Tracé_10" data-name="Tracé 10" d="M21.441,16.933a17.678,17.678,0,0,1,4.622-11.8c.194-.213.393-.421.591-.63,1.319-1.4,1.464-2.71.418-3.773-1.1-1.123-2.438-.957-3.891.493a21.152,21.152,0,0,0-6.109,11.383A21.859,21.859,0,0,0,23.16,32.749c1.435,1.476,2.779,1.637,3.9.534,1.078-1.062.919-2.434-.51-3.9a17.717,17.717,0,0,1-5.107-12.45" transform="translate(-16.643 0)" fill="#fff"/>
      <path id="Tracé_11" data-name="Tracé 11" d="M0,32.805a10.725,10.725,0,0,0,3.515,7.987,2.35,2.35,0,0,0,3.275.281c.964-.711.943-2.241.063-3.423C4.1,33.959,4.092,31.771,6.815,28.2c1.111-1.457,1.071-2.619-.126-3.634-1.113-.944-2.235-.821-3.464.483A11.539,11.539,0,0,0,0,32.805" transform="translate(9.264 -15.656)" fill="#fff"/>
    </g>
  </g>
</svg>
