<svg xmlns="http://www.w3.org/2000/svg" xmlns:xlink="http://www.w3.org/1999/xlink" width="16.884" height="34" viewBox="0 0 16.884 34">
  <defs>
    <clipPath id="clip-path">
      <rect id="Rectangle_24" data-name="Rectangle 24" width="16.884" height="34" fill="#fff"/>
    </clipPath>
  </defs>
  <g id="Groupe_50" data-name="Groupe 50" transform="translate(-14)">
    <g id="Groupe_44" data-name="Groupe 44" transform="translate(14 0)" clip-path="url(#clip-path)">
      <path id="Tracé_10" data-name="Tracé 10" d="M22.965,16.933a17.677,17.677,0,0,0-4.623-11.8c-.194-.213-.393-.421-.591-.63-1.319-1.4-1.464-2.71-.418-3.773,1.1-1.123,2.439-.957,3.892.493a21.151,21.151,0,0,1,6.11,11.383,21.858,21.858,0,0,1-6.088,20.138c-1.435,1.476-2.78,1.637-3.9.534-1.079-1.062-.919-2.434.51-3.9a17.716,17.716,0,0,0,5.108-12.45" transform="translate(-10.881 0)" fill="#fff"/>
      <path id="Tracé_11" data-name="Tracé 11" d="M7.619,32.805A10.725,10.725,0,0,1,4.1,40.793a2.35,2.35,0,0,1-3.276.281c-.964-.711-.943-2.241-.063-3.423C3.518,33.959,3.527,31.771.8,28.2-.307,26.742-.267,25.581.93,24.565c1.113-.944,2.236-.821,3.464.483a11.538,11.538,0,0,1,3.225,7.757" transform="translate(0 -15.656)" fill="#fff"/>
    </g>
  </g>
</svg>
