<svg xmlns="http://www.w3.org/2000/svg" xmlns:xlink="http://www.w3.org/1999/xlink" width="29.203" height="32.335" viewBox="0 0 29.203 32.335">
  <defs>
    <clipPath id="clip-path">
      <rect id="Rectangle_32" data-name="Rectangle 32" width="29.203" height="32.335" fill="#c09628"/>
    </clipPath>
  </defs>
  <g id="Groupe_60" data-name="Groupe 60" transform="translate(0 0)">
    <g id="Groupe_59" data-name="Groupe 59" transform="translate(0 0)" clip-path="url(#clip-path)">
      <path id="Tracé_22" data-name="Tracé 22" d="M14.035,32.334c-.211-.053-.426-.1-.634-.16a4.649,4.649,0,0,1-3.419-3.749c-.017-.081-.039-.162-.064-.262H9.537c-1.989,0-3.978.01-5.966-.005A3.628,3.628,0,0,1,.242,25.813a3.565,3.565,0,0,1,.921-3.93,3.844,3.844,0,0,1,2.452-1.021c.461-.027.56-.141.561-.607,0-2.052-.041-4.1.009-6.156a10.223,10.223,0,0,1,6.277-9.586c.2-.095.483-.122.582-.275s.008-.423.005-.642a3.554,3.554,0,1,1,7.107.037c0,.2-.028.4-.046.635.124.053.267.11.407.175a10.621,10.621,0,0,1,6.452,8.8,9.924,9.924,0,0,1,.058,1.228c.006,1.894,0,3.788,0,5.683,0,.6.055.666.647.717a3.752,3.752,0,0,1,3.455,2.92,3.646,3.646,0,0,1-3.552,4.371c-1.978.014-3.957,0-5.935,0h-.274a14.285,14.285,0,0,1-.705,1.783,4.505,4.505,0,0,1-3.378,2.334,1.349,1.349,0,0,0-.179.054Zm.55-6.255q5.43,0,10.86,0a1.562,1.562,0,1,0,.191-3.117c-.229-.03-.465-.023-.689-.071a2.49,2.49,0,0,1-2-2.5q-.011-3,0-6a8.8,8.8,0,0,0-.583-3.208,8.259,8.259,0,0,0-11.5-4.551,8.014,8.014,0,0,0-4.581,7.312c-.061,2.155-.007,4.314-.015,6.471A2.489,2.489,0,0,1,4.239,22.9c-.267.053-.546.042-.814.089A1.554,1.554,0,0,0,2.3,25.3a1.6,1.6,0,0,0,1.486.782q5.4-.006,10.8,0m-2.5,2.1a2.565,2.565,0,0,0,5.033,0ZM16.043,3.7a1.4,1.4,0,0,0-.713-1.425,1.466,1.466,0,0,0-1.654.139A1.276,1.276,0,0,0,13.183,3.7Z" transform="translate(0 0)" fill="#c09628"/>
      <path id="Tracé_23" data-name="Tracé 23" d="M1.183,19.43A1.017,1.017,0,0,1,.2,18.075,21.625,21.625,0,0,1,.93,15.8a13.689,13.689,0,0,1,3.082-4.646,1.05,1.05,0,0,1,1.3-.209,1,1,0,0,1,.482,1.16,1.341,1.341,0,0,1-.318.531,12.275,12.275,0,0,0-3.239,5.892,1.039,1.039,0,0,1-1.051.905" transform="translate(-0.1 -6.921)" fill="#c09628"/>
      <path id="Tracé_24" data-name="Tracé 24" d="M70.971,18.333a1.053,1.053,0,0,1-.869,1.074,1.042,1.042,0,0,1-1.167-.746c-.2-.631-.352-1.278-.587-1.894a11.753,11.753,0,0,0-2.655-4.1,1.12,1.12,0,0,1-.392-.954.988.988,0,0,1,.686-.865,1.021,1.021,0,0,1,1.126.281,14.293,14.293,0,0,1,3.816,6.923c.026.112.034.228.042.282" transform="translate(-41.825 -6.907)" fill="#c09628"/>
    </g>
  </g>
</svg>
