<svg xmlns="http://www.w3.org/2000/svg" xmlns:xlink="http://www.w3.org/1999/xlink" width="32.634" height="32.621" viewBox="0 0 32.634 32.621">
  <defs>
    <clipPath id="clip-path">
      <rect id="Rectangle_34" data-name="Rectangle 34" width="32.634" height="32.621" fill="#c09628"/>
    </clipPath>
  </defs>
  <g id="Groupe_64" data-name="Groupe 64" transform="translate(0 0)">
    <g id="Groupe_63" data-name="Groupe 63" transform="translate(0 0)" clip-path="url(#clip-path)">
      <path id="Tracé_31" data-name="Tracé 31" d="M0,17.269V15.357c.026-.229.053-.459.078-.688A16.1,16.1,0,0,1,3.684,6.021,16.074,16.074,0,0,1,13.5.254C14.117.144,14.74.084,15.358,0h1.912c.1.019.206.043.309.058.693.1,1.4.147,2.077.3A15.983,15.983,0,0,1,29.746,7.1a15.793,15.793,0,0,1,2.507,12.618,15.75,15.75,0,0,1-5.442,9.046,15.9,15.9,0,0,1-12.153,3.769,15.672,15.672,0,0,1-8.628-3.588A16.073,16.073,0,0,1,.254,19.122C.144,18.509.084,17.887,0,17.269M16.3,1.912a14.4,14.4,0,1,0,14.41,14.4A14.425,14.425,0,0,0,16.3,1.912" transform="translate(0 0)" fill="#c09628"/>
      <path id="Tracé_32" data-name="Tracé 32" d="M35.617,23.145A12.49,12.49,0,1,1,23.136,10.639,12.572,12.572,0,0,1,35.617,23.145M33.7,23.137A10.577,10.577,0,1,0,23.111,33.706,10.615,10.615,0,0,0,33.7,23.137" transform="translate(-6.814 -6.815)" fill="#c09628"/>
      <path id="Tracé_33" data-name="Tracé 33" d="M26.053,32.727V30.814c-.306,0-.612,0-.917,0a.957.957,0,1,1,0-1.91c.372-.005.744-.014,1.115,0,.2.01.289-.065.363-.253a7.226,7.226,0,0,1,2.908-3.6A6.049,6.049,0,0,1,37.107,26c.133.138.269.272.389.421a.948.948,0,0,1-.08,1.321.963.963,0,0,1-1.325-.035,9.011,9.011,0,0,0-1.316-1.09,4.085,4.085,0,0,0-5.093.747,10.324,10.324,0,0,0-.759.939,5.731,5.731,0,0,0-.34.6h.385c1.232,0,2.463-.006,3.695,0a.951.951,0,0,1,.929,1.331.971.971,0,0,1-.975.58c-1.412,0-2.824,0-4.237,0h-.392v1.911h.379c1.433,0,2.867-.006,4.3,0a.957.957,0,1,1-.023,1.91q-1.848,0-3.695,0H28.6a5.052,5.052,0,0,0,1.785,2.117,4.12,4.12,0,0,0,5.481-.681c.309-.329.622-.618,1.124-.5a.926.926,0,0,1,.553,1.476,5.947,5.947,0,0,1-5.409,2.317,6.565,6.565,0,0,1-5.47-4.385c-.111-.259-.223-.383-.522-.355a8.755,8.755,0,0,1-1.051.005.954.954,0,1,1,0-1.907c.317-.009.634,0,.962,0" transform="translate(-15.45 -15.457)" fill="#c09628"/>
    </g>
  </g>
</svg>
