<svg xmlns="http://www.w3.org/2000/svg" xmlns:xlink="http://www.w3.org/1999/xlink" width="32.887" height="32.892" viewBox="0 0 32.887 32.892">
  <defs>
    <clipPath id="clip-path">
      <rect id="Rectangle_36" data-name="Rectangle 36" width="32.887" height="32.892" fill="#c09628"/>
    </clipPath>
  </defs>
  <g id="Groupe_68" data-name="Groupe 68" transform="translate(0 0)">
    <g id="Groupe_67" data-name="Groupe 67" transform="translate(0 0)" clip-path="url(#clip-path)">
      <path id="Tracé_36" data-name="Tracé 36" d="M32.453,32.892c-.183-.051-.366-.1-.547-.152a3.432,3.432,0,0,1-2.475-3.178c-.04-2.408-.025-4.816-.015-7.224a1.154,1.154,0,0,1,1.172-1.19,1.172,1.172,0,0,1,1.161,1.236c.005,2.248,0,4.5,0,6.743,0,.977.434,1.413,1.409,1.413q7.4,0,14.8,0c.981,0,1.4-.426,1.4-1.409q0-12.684,0-25.367c0-.981-.425-1.405-1.408-1.406h-14.8c-.973,0-1.4.438-1.4,1.417,0,2.247,0,4.5,0,6.743a1.162,1.162,0,0,1-1.542,1.166,1.111,1.111,0,0,1-.781-.967,1.265,1.265,0,0,1-.014-.16c0-2.408-.029-4.817.021-7.224A3.44,3.44,0,0,1,32.824.013C34.237-.011,35.65.006,37.063.006q5.523,0,11.046,0A3.5,3.5,0,0,1,51.62,2.729a4.39,4.39,0,0,1,.1.985q.008,12.732,0,25.464a3.509,3.509,0,0,1-3,3.67.341.341,0,0,0-.083.045Z" transform="translate(-18.835 0)" fill="#c09628"/>
      <path id="Tracé_37" data-name="Tracé 37" d="M0,32.992a7.416,7.416,0,0,1,.641-.86c1.808-1.826,3.63-3.637,5.445-5.456a1.288,1.288,0,0,1,.892-.449,1.116,1.116,0,0,1,1.083.613,1.1,1.1,0,0,1-.087,1.239,2.549,2.549,0,0,1-.278.31Q6,30.082,4.308,31.77A1.29,1.29,0,0,1,4,31.94l.1.139H23.287a1.192,1.192,0,0,1,1.33.865,1.157,1.157,0,0,1-1,1.461c-.149.014-.3.011-.449.011H4.1l-.116.148a1.134,1.134,0,0,1,.315.157c1.171,1.161,2.334,2.329,3.5,3.493A1.19,1.19,0,0,1,8.17,39.5a1.157,1.157,0,0,1-1.824.565,3.3,3.3,0,0,1-.305-.285q-2.7-2.7-5.4-5.41A7.489,7.489,0,0,1,0,33.506v-.514" transform="translate(0 -16.799)" fill="#c09628"/>
    </g>
  </g>
</svg>
